# xmcd
#
# Track frame offsets:
#	150
#	16385
#	39710
#	55715
#	70151
#	95711
#	113725
#	132995
#	151201
#
# Disc length: 2183 seconds
#
# Revision: 1
# Processed by: cddbd v1.5.2PL0 Copyright (c) Steve Scherf et al.
# Submitted via: audiograbber 1.83.01
#
DISCID=73088509
DTITLE=Wayne Albright - Hot- Lanta
DYEAR=2002
DGENRE=Code 11 Records
TTITLE0=Hot Lanta  
TTITLE1=Beauty of the Night....by, Shirley Christopher, and Wayne Albright
TTITLE2=Little Gypsy 
TTITLE3=Goodbye is not Enough
TTITLE4=She Makes My World worth living in 
TTITLE5=Somewhere Between Seperate and Single
TTITLE6=Falling Out Of Love
TTITLE7=You Complete Me....Duet with Sue Bailey
TTITLE8=Speed'in my way Back to You
EXTD=
EXTT0=
EXTT1=
EXTT2=
EXTT3=
EXTT4=
EXTT5=
EXTT6=
EXTT7=
EXTT8=
PLAYORDER=
